<?xml version="1.0" encoding="utf-8"?>
<!-- Generator: Adobe Illustrator 16.0.4, SVG Export Plug-In . SVG Version: 6.00 Build 0)  -->
<!DOCTYPE svg PUBLIC "-//W3C//DTD SVG 1.1//EN" "http://www.w3.org/Graphics/SVG/1.1/DTD/svg11.dtd">
<svg version="1.1" id="Layer_1" xmlns="http://www.w3.org/2000/svg" xmlns:xlink="http://www.w3.org/1999/xlink" x="0px" y="0px"
	 width="864px" height="864px" viewBox="0 0 864 864" enable-background="new 0 0 864 864" xml:space="preserve">
<g>
	<g>
		<g>
			<g>
				<circle fill="#165F83" cx="422.336" cy="422.334" r="411.456"/>
			</g>
		</g>
	</g>
	<path fill="#FFFFFF" d="M452.708,316.884H271.371c-3.756,0-6.8-3.044-6.8-6.8c0-3.753,3.044-6.8,6.8-6.8h181.336
		c3.755,0,6.801,3.047,6.801,6.8C459.509,313.84,456.463,316.884,452.708,316.884z"/>
	<path fill="#FFFFFF" d="M568.794,243.933H275.565c-6.069,0-10.995-4.923-10.995-10.997c0-6.073,4.925-10.996,10.995-10.996h293.229
		c6.074,0,10.996,4.923,10.996,10.996C579.79,239.01,574.868,243.933,568.794,243.933z"/>
	<path fill="#FFFFFF" d="M452.708,352.43H271.371c-3.756,0-6.8-3.047-6.8-6.8c0-3.757,3.044-6.8,6.8-6.8h181.336
		c3.755,0,6.801,3.043,6.801,6.8C459.509,349.383,456.463,352.43,452.708,352.43z"/>
	<path fill="#FFFFFF" d="M452.708,387.973H271.371c-3.756,0-6.8-3.043-6.8-6.799s3.044-6.8,6.8-6.8h181.336
		c3.755,0,6.801,3.044,6.801,6.8S456.463,387.973,452.708,387.973z"/>
	<path fill="#FFFFFF" d="M452.708,423.519H271.371c-3.756,0-6.8-3.044-6.8-6.8s3.044-6.8,6.8-6.8h181.336
		c3.755,0,6.801,3.044,6.801,6.8S456.463,423.519,452.708,423.519z"/>
	<path fill="#FFFFFF" d="M452.708,484.624H271.371c-3.756,0-6.8-3.047-6.8-6.802c0-3.754,3.044-6.799,6.8-6.799h181.336
		c3.755,0,6.801,3.045,6.801,6.799C459.509,481.577,456.463,484.624,452.708,484.624z"/>
	<path fill="#FFFFFF" d="M452.708,520.166H271.371c-3.756,0-6.8-3.043-6.8-6.801c0-3.755,3.044-6.8,6.8-6.8h181.336
		c3.755,0,6.801,3.045,6.801,6.8C459.509,517.123,456.463,520.166,452.708,520.166z"/>
	<path fill="#FFFFFF" d="M452.708,555.713H271.371c-3.756,0-6.8-3.045-6.8-6.801c0-3.757,3.044-6.802,6.8-6.802h181.336
		c3.755,0,6.801,3.045,6.801,6.802C459.509,552.668,456.463,555.713,452.708,555.713z"/>
	<path fill="#FFFFFF" d="M452.708,591.256H271.371c-3.756,0-6.8-3.045-6.8-6.8c0-3.756,3.044-6.801,6.8-6.801h181.336
		c3.755,0,6.801,3.045,6.801,6.801C459.509,588.211,456.463,591.256,452.708,591.256z"/>
	<g>
		<polygon fill="#FFFFFF" points="482.681,573.832 471.29,580.62 477.112,563.608 484.735,562.753 482.437,566.884 488.917,566.147 
					"/>
		<path fill="#FFFFFF" d="M508.83,513.164L508.83,513.164l-16.844,6.969L471.29,580.62l54.92-32.724l0.216-20.46l-1.005,0.473
			l-0.206,19.415l-52.098,31.043l19.668-57.483l15.877-6.568"/>
		<g>
			<polygon fill="#FFFFFF" points="763.374,232.502 763.568,232.66 758.752,228.75 756.34,226.794 751.521,222.884 752.103,223.357 
				509.912,521.89 514.151,525.322 516.562,527.281 521.187,531.03 			"/>
			<polygon fill="#FFFFFF" points="750.609,222.817 734.176,221.603 491.986,520.133 508.418,521.351 			"/>
			<polygon fill="#FFFFFF" points="763.653,232.953 521.466,531.479 526.21,547.896 768.401,249.37 			"/>
		</g>
	</g>
</g>
<g>
	<polygon fill="#FFFFFF" points="631.749,371.709 597.749,413.619 597.749,436.657 631.749,394.748 	"/>
	<path fill="#FFFFFF" d="M597.749,437.451v216.885H246.921V190.337h350.828v220.9l34-41.91V173.337c0-9.389-7.612-17-17-17H229.922
		c-9.39,0-17.002,7.611-17.002,17v497.998c0,9.386,7.612,17.001,17.002,17.001h384.827c9.388,0,17-7.615,17-17.001V395.542
		L597.749,437.451z"/>
</g>
</svg>
